<svg version="1" xmlns="http://www.w3.org/2000/svg" width="16px" height="16px" viewBox="0 0 16.000000 16.000000"><path d="M8.915 3.801c-1.175.073-2.162.25-3.011.54-1.659.567-2.703 1.544-2.958 2.767-.043.208-.051.294-.051.562l.018.375c.128.861.614 1.603 1.331 2.031.463.277.974.397 1.554.365.209-.012.418-.039.542-.07l.075-.019-.105-.001c-.417-.004-.858-.133-1.169-.341-.116-.078-.272-.226-.357-.34-.078-.104-.164-.274-.199-.395-.092-.319-.065-.614.085-.922.183-.375.556-.684 1.049-.87.452-.169.945-.242 1.566-.23.433.008.758.059 1.15.179 1.069.327 1.988 1.11 2.509 2.138.624 1.23.632 2.65.021 3.878-.292.587-.724 1.126-1.262 1.573l-.189.157.146-.071c.824-.488 1.539-1.166 2.067-1.962.278-.419.513-.881.685-1.35.475-1.293.512-2.761.101-4.09-.176-.571-.447-1.141-.786-1.65-.53-.798-1.238-1.469-2.072-1.965-.194-.115-.557-.3-.586-.299l-.154.01zM3.149 4.088c-.938.557-1.698 1.316-2.259 2.257-.107.179-.298.557-.38.75-.542 1.282-.653 2.697-.319 4.054.172.699.474 1.382.882 1.996.607.914 1.431 1.648 2.424 2.157l.211.109.064-.006.238-.015c.917-.056 1.862-.215 2.6-.439 1.041-.315 1.848-.768 2.42-1.357.486-.501.771-1.067.862-1.714.02-.145.017-.573-.005-.725-.128-.861-.614-1.603-1.331-2.031-.463-.277-.974-.397-1.554-.365-.209.012-.418.039-.542.07l-.075.019.105.001c.417.004.858.133 1.169.341.116.078.272.226.357.34l.119.195c.179.363.178.747-.004 1.12-.275.562-.935.944-1.84 1.064-.364.049-.908.054-1.216.012-.436-.059-.79-.158-1.181-.331-.855-.378-1.598-1.092-2.038-1.96-.68-1.34-.624-2.904.149-4.19.319-.529.684-.934 1.281-1.417l.034-.032-.171.097z"/></svg>
